<svg width="148" height="99" viewBox="0 0 148 99" fill="none" xmlns="http://www.w3.org/2000/svg">
<path d="M7.43227 18.7039C6.29525 18.7039 5.30983 18.5036 4.47602 18.1029C3.65304 17.6914 3.01956 17.1175 2.57558 16.3812C2.1316 15.6448 1.90961 14.8002 1.90961 13.8472C1.90961 12.5695 2.20199 11.4108 2.78674 10.3712C3.37149 9.33167 4.19448 8.5141 5.25569 7.91852C6.31691 7.31211 7.53514 7.00891 8.91039 7.00891C9.8958 7.00891 10.7621 7.17134 11.5093 7.4962C12.2673 7.82106 12.8412 8.29211 13.231 8.90935L11.7042 10.1926C11.0653 9.3046 10.0853 8.86062 8.7642 8.86062C7.8221 8.86062 6.9937 9.07719 6.27901 9.51034C5.56431 9.94349 5.01204 10.5337 4.62221 11.2808C4.23238 12.0172 4.03746 12.8293 4.03746 13.7173C4.03746 14.6811 4.34608 15.4445 4.96332 16.0076C5.58055 16.5707 6.45768 16.8522 7.5947 16.8522C8.90497 16.8522 9.98243 16.4137 10.8271 15.5365L12.0615 16.8685C11.5201 17.4857 10.8541 17.9459 10.0636 18.2491C9.27315 18.5523 8.39602 18.7039 7.43227 18.7039ZM22.0353 13.5711C22.0353 13.9934 21.992 14.4049 21.9054 14.8056H15.0183C15.0508 16.2242 15.8846 16.9334 17.5197 16.9334C18.0179 16.9334 18.4835 16.8576 18.9166 16.706C19.3498 16.5436 19.718 16.3216 20.0212 16.0401L20.8658 17.4532C20.4218 17.8539 19.8858 18.1571 19.2577 18.3628C18.6405 18.5577 17.9908 18.6552 17.3086 18.6552C16.4423 18.6552 15.6843 18.4982 15.0345 18.1842C14.3956 17.8701 13.9029 17.4261 13.5564 16.8522C13.2099 16.2675 13.0366 15.5961 13.0366 14.8381C13.0366 13.8743 13.2478 13.008 13.6701 12.2392C14.1033 11.4595 14.6989 10.8531 15.4569 10.42C16.2257 9.98681 17.0866 9.77023 18.0395 9.77023C19.2523 9.77023 20.2215 10.1113 20.947 10.7935C21.6726 11.4649 22.0353 12.3908 22.0353 13.5711ZM17.9421 11.3945C17.2598 11.3945 16.6751 11.5786 16.1878 11.9468C15.7113 12.315 15.3811 12.8185 15.197 13.4574H20.1674C20.1782 12.8077 19.9779 12.3042 19.5664 11.9468C19.1657 11.5786 18.6243 11.3945 17.9421 11.3945ZM25.4162 6.48913H27.4465L25.0426 18.5415H23.0122L25.4162 6.48913ZM36.7873 13.5711C36.7873 13.9934 36.744 14.4049 36.6574 14.8056H29.7703C29.8028 16.2242 30.6366 16.9334 32.2718 16.9334C32.7699 16.9334 33.2355 16.8576 33.6687 16.706C34.1018 16.5436 34.47 16.3216 34.7732 16.0401L35.6178 17.4532C35.1739 17.8539 34.6378 18.1571 34.0098 18.3628C33.3925 18.5577 32.7428 18.6552 32.0606 18.6552C31.1943 18.6552 30.4363 18.4982 29.7866 18.1842C29.1477 17.8701 28.655 17.4261 28.3084 16.8522C27.9619 16.2675 27.7887 15.5961 27.7887 14.8381C27.7887 13.8743 27.9998 13.008 28.4221 12.2392C28.8553 11.4595 29.4509 10.8531 30.2089 10.42C30.9777 9.98681 31.8386 9.77023 32.7915 9.77023C34.0044 9.77023 34.9735 10.1113 35.6991 10.7935C36.4246 11.4649 36.7873 12.3908 36.7873 13.5711ZM32.6941 11.3945C32.0119 11.3945 31.4271 11.5786 30.9398 11.9468C30.4634 12.315 30.1331 12.8185 29.949 13.4574H34.9194C34.9302 12.8077 34.7299 12.3042 34.3184 11.9468C33.9177 11.5786 33.3763 11.3945 32.6941 11.3945ZM44.0665 9.77023C44.7812 9.77023 45.4255 9.92184 45.9995 10.225C46.5842 10.5282 47.0444 10.9668 47.3801 11.5407C47.7158 12.1147 47.8837 12.7914 47.8837 13.5711C47.8837 14.5349 47.6671 15.4066 47.2339 16.1863C46.8116 16.9551 46.2269 17.5615 45.4797 18.0055C44.7433 18.4386 43.9203 18.6552 43.0107 18.6552C42.296 18.6552 41.6788 18.5307 41.159 18.2816C40.6392 18.0217 40.244 17.6481 39.9733 17.1608L39.6971 18.5415H37.7642L40.1682 6.48913H42.1986L41.3702 10.6798C42.1065 10.0734 43.0053 9.77023 44.0665 9.77023ZM42.8483 16.9172C43.4222 16.9172 43.9312 16.7818 44.3752 16.5111C44.83 16.2296 45.1873 15.8452 45.4472 15.3579C45.7071 14.8597 45.837 14.2966 45.837 13.6686C45.837 12.9864 45.6367 12.4558 45.236 12.0768C44.8354 11.6869 44.2723 11.492 43.5468 11.492C42.9728 11.492 42.4585 11.6328 42.0037 11.9143C41.5597 12.185 41.2077 12.5695 40.9479 13.0676C40.688 13.5549 40.558 14.1126 40.558 14.7406C40.558 15.4228 40.7584 15.9589 41.159 16.3487C41.5597 16.7277 42.1228 16.9172 42.8483 16.9172ZM52.3269 10.9885C52.7059 10.5445 53.1661 10.2305 53.7076 10.0464C54.2598 9.86228 54.915 9.77023 55.673 9.77023L55.2994 11.7032C55.1153 11.6707 54.9475 11.6544 54.7959 11.6544C53.1391 11.6544 52.1374 12.5261 51.7909 14.2696L50.93 18.5415H48.8996L50.6214 9.86769H52.5543L52.3269 10.9885ZM65.7625 9.86769L64.0407 18.5415H62.1078L62.2865 17.6481C61.5285 18.3195 60.5864 18.6552 59.4602 18.6552C58.7455 18.6552 58.0957 18.5036 57.511 18.2004C56.9371 17.8972 56.4823 17.4586 56.1466 16.8847C55.8109 16.3 55.643 15.6177 55.643 14.8381C55.643 13.8743 55.8542 13.008 56.2765 12.2392C56.7097 11.4595 57.2944 10.8531 58.0308 10.42C58.778 9.98681 59.6118 9.77023 60.5322 9.77023C61.9183 9.77023 62.9037 10.2305 63.4885 11.1509L63.7321 9.86769H65.7625ZM59.9799 16.9172C60.5539 16.9172 61.0628 16.7818 61.5068 16.5111C61.9616 16.2296 62.3189 15.8452 62.5788 15.3579C62.8387 14.8597 62.9687 14.2966 62.9687 13.6686C62.9687 12.9864 62.7683 12.4558 62.3677 12.0768C61.967 11.6869 61.4039 11.492 60.6784 11.492C60.1045 11.492 59.5901 11.6328 59.1353 11.9143C58.6913 12.185 58.3394 12.5695 58.0795 13.0676C57.8196 13.5549 57.6897 14.1126 57.6897 14.7406C57.6897 15.4228 57.89 15.9589 58.2907 16.3487C58.6913 16.7277 59.2544 16.9172 59.9799 16.9172ZM69.556 15.634C69.5344 15.8072 69.5235 15.9318 69.5235 16.0076C69.5235 16.6573 69.8646 16.9822 70.5468 16.9822C70.9692 16.9822 71.3482 16.8685 71.6839 16.6411L72.0412 18.1354C71.4889 18.4819 70.7905 18.6552 69.9458 18.6552C69.1987 18.6552 68.5977 18.4495 68.1429 18.038C67.6881 17.6265 67.4606 17.058 67.4606 16.3324C67.4606 16.0942 67.4823 15.8668 67.5256 15.6502L68.354 11.557H66.9409L67.2657 9.93266H68.6789L69.0687 7.95101H71.0991L70.693 9.93266H73.032L72.7072 11.557H70.3682L69.556 15.634ZM75.3033 9.86769H77.3337L75.6119 18.5415H73.5815L75.3033 9.86769ZM76.7814 8.4383C76.424 8.4383 76.1317 8.33001 75.9043 8.11344C75.6769 7.88603 75.5632 7.61532 75.5632 7.30128C75.5632 6.93311 75.6877 6.62449 75.9367 6.37543C76.1966 6.12637 76.5323 6.00184 76.9438 6.00184C77.3012 6.00184 77.5935 6.11012 77.8209 6.3267C78.0484 6.53244 78.1621 6.78692 78.1621 7.09012C78.1621 7.49079 78.0321 7.81565 77.7722 8.06471C77.5232 8.31377 77.1929 8.4383 76.7814 8.4383ZM84.7253 9.77023C85.6999 9.77023 86.4687 10.0247 87.0318 10.5337C87.6057 11.0426 87.8927 11.7627 87.8927 12.694C87.8927 12.9539 87.8548 13.3004 87.779 13.7335L86.8206 18.5415H84.7902L85.7323 13.7823C85.7757 13.5657 85.7973 13.3437 85.7973 13.1163C85.7973 12.0659 85.218 11.5407 84.0593 11.5407C83.3121 11.5407 82.6949 11.7519 82.2076 12.1742C81.7203 12.5857 81.39 13.2084 81.2168 14.0422L80.3072 18.5415H78.2768L79.9985 9.86769H81.9315L81.7365 10.826C82.5162 10.1222 83.5125 9.77023 84.7253 9.77023ZM99.8225 9.86769L98.3443 17.2258C98.0195 18.8176 97.4185 19.9763 96.5414 20.7018C95.6642 21.4382 94.4785 21.8064 92.9841 21.8064C91.284 21.8064 89.9304 21.4111 88.9234 20.6206L89.9792 19.0938C90.3148 19.3861 90.7588 19.619 91.3111 19.7922C91.8742 19.9763 92.4752 20.0684 93.1141 20.0684C94.0453 20.0684 94.76 19.8626 95.2582 19.4511C95.7563 19.0396 96.0866 18.4116 96.249 17.5669L96.3302 17.1446C95.5505 17.816 94.603 18.1517 93.4877 18.1517C92.7405 18.1517 92.0691 18.0055 91.4735 17.7131C90.8888 17.4207 90.4285 17.0038 90.0929 16.4624C89.768 15.921 89.6056 15.2875 89.6056 14.5619C89.6056 13.674 89.8167 12.8672 90.239 12.1417C90.6614 11.4054 91.2461 10.826 91.9933 10.4037C92.7513 9.98139 93.596 9.77023 94.5272 9.77023C95.2094 9.77023 95.8213 9.90018 96.3627 10.1601C96.9041 10.4091 97.3156 10.7881 97.5972 11.2971L97.8733 9.86769H99.8225ZM93.9425 16.4299C94.5164 16.4299 95.0253 16.3054 95.4693 16.0563C95.9241 15.7964 96.2761 15.4445 96.5251 15.0005C96.785 14.5457 96.915 14.0368 96.915 13.4737C96.915 12.8564 96.7146 12.3745 96.314 12.028C95.9133 11.6707 95.3556 11.492 94.6409 11.492C94.067 11.492 93.5526 11.6219 93.0978 11.8818C92.643 12.1309 92.2857 12.4828 92.0258 12.9376C91.7767 13.3816 91.6522 13.8852 91.6522 14.4482C91.6522 15.0547 91.8525 15.5365 92.2532 15.8939C92.6647 16.2512 93.2278 16.4299 93.9425 16.4299ZM5.75923 91.6552C4.91459 91.6552 4.17282 91.4982 3.53392 91.1842C2.90586 90.8593 2.41856 90.4099 2.07204 89.836C1.72552 89.2621 1.55227 88.5961 1.55227 87.8381C1.55227 86.8743 1.76884 86.008 2.20199 85.2392C2.64597 84.4703 3.25779 83.8693 4.03746 83.4362C4.82796 82.9922 5.71591 82.7702 6.70133 82.7702C7.54597 82.7702 8.28774 82.9272 8.92663 83.2413C9.56553 83.5553 10.0582 83.9993 10.4048 84.5732C10.7513 85.1471 10.9245 85.8131 10.9245 86.5711C10.9245 87.5349 10.7025 88.4012 10.2586 89.17C9.81459 89.9389 9.19735 90.5453 8.40685 90.9892C7.62718 91.4332 6.74464 91.6552 5.75923 91.6552ZM5.88917 89.9172C6.46309 89.9172 6.97204 89.7818 7.41602 89.5111C7.87083 89.2296 8.22818 88.8452 8.48807 88.3579C8.74796 87.8597 8.8779 87.2966 8.8779 86.6686C8.8779 85.9864 8.67757 85.4558 8.27691 85.0768C7.87624 84.6869 7.31315 84.492 6.58762 84.492C6.0137 84.492 5.49934 84.6328 5.04453 84.9143C4.60055 85.185 4.24862 85.5695 3.98873 86.0676C3.72884 86.5549 3.5989 87.1126 3.5989 87.7406C3.5989 88.4228 3.79923 88.9589 4.19989 89.3487C4.60055 89.7277 5.16365 89.9172 5.88917 89.9172ZM17.5441 81.016C17.1218 81.016 16.7861 81.1351 16.537 81.3733C16.288 81.6116 16.1093 81.9743 16.001 82.4616L15.9035 82.9327H18.275L17.9502 84.557H15.6274L14.2305 91.5415H12.2001L13.597 84.557H12.1839L12.5087 82.9327H13.9219L14.0518 82.3154C14.2468 81.3842 14.6366 80.664 15.2213 80.1551C15.8169 79.6353 16.5912 79.3754 17.5441 79.3754C17.9231 79.3754 18.275 79.4187 18.5999 79.5054C18.9356 79.592 19.2171 79.7219 19.4445 79.8952L18.6161 81.3733C18.3238 81.1351 17.9664 81.016 17.5441 81.016ZM26.6322 81.9418L26.0475 84.8981H31.5539L31.2128 86.6361H25.6901L25.0729 89.771H31.5052L31.1478 91.5415H22.6202L24.8942 80.1713H33.1944L32.8371 81.9418H26.6322ZM38.4435 87.1884L40.9125 91.5415H38.7684L37.1116 88.5365L34.269 91.5415H31.93L36.2832 87.0584L33.9279 82.8677H36.0395L37.5989 85.7102L40.3277 82.8677H42.6017L38.4435 87.1884ZM46.5109 91.6552C45.6554 91.6552 44.9028 91.4982 44.2531 91.1842C43.6142 90.8593 43.1215 90.4099 42.775 89.836C42.4284 89.2621 42.2552 88.5961 42.2552 87.8381C42.2552 86.8743 42.4772 86.008 42.9211 85.2392C43.3651 84.4703 43.9769 83.8693 44.7566 83.4362C45.5471 82.9922 46.4459 82.7702 47.453 82.7702C48.3301 82.7702 49.0827 82.9435 49.7108 83.29C50.3496 83.6257 50.8424 84.1292 51.1889 84.8006L49.4509 85.694C49.0502 84.8927 48.3301 84.492 47.2905 84.492C46.7166 84.492 46.2022 84.6328 45.7474 84.9143C45.3035 85.185 44.9515 85.5695 44.6916 86.0676C44.4317 86.5549 44.3018 87.1126 44.3018 87.7406C44.3018 88.4228 44.5021 88.9589 44.9028 89.3487C45.3035 89.7277 45.872 89.9172 46.6083 89.9172C47.1064 89.9172 47.5558 89.8197 47.9565 89.6248C48.3572 89.4191 48.6983 89.1159 48.9798 88.7152L50.4742 89.7223C50.0735 90.3287 49.5213 90.8052 48.8174 91.1517C48.1135 91.4874 47.3447 91.6552 46.5109 91.6552ZM60.5651 86.5711C60.5651 86.9934 60.5218 87.4049 60.4351 87.8056H53.5481C53.5805 89.2242 54.4144 89.9334 56.0495 89.9334C56.5476 89.9334 57.0132 89.8576 57.4464 89.706C57.8795 89.5436 58.2477 89.3216 58.5509 89.0401L59.3956 90.4532C58.9516 90.8539 58.4156 91.1571 57.7875 91.3628C57.1703 91.5577 56.5205 91.6552 55.8383 91.6552C54.972 91.6552 54.214 91.4982 53.5643 91.1842C52.9254 90.8701 52.4327 90.4261 52.0862 89.8522C51.7397 89.2675 51.5664 88.5961 51.5664 87.8381C51.5664 86.8743 51.7776 86.008 52.1999 85.2392C52.633 84.4595 53.2286 83.8531 53.9866 83.42C54.7555 82.9868 55.6163 82.7702 56.5693 82.7702C57.7821 82.7702 58.7513 83.1113 59.4768 83.7935C60.2023 84.4649 60.5651 85.3908 60.5651 86.5711ZM56.4718 84.3945C55.7896 84.3945 55.2049 84.5786 54.7176 84.9468C54.2411 85.315 53.9108 85.8185 53.7267 86.4574H58.6971C58.7079 85.8077 58.5076 85.3042 58.0961 84.9468C57.6955 84.5786 57.154 84.3945 56.4718 84.3945ZM63.9459 79.4891H65.9763L63.5723 91.5415H61.5419L63.9459 79.4891ZM68.6412 79.4891H70.6716L68.2676 91.5415H66.2372L68.6412 79.4891ZM80.0124 86.5711C80.0124 86.9934 79.9691 87.4049 79.8824 87.8056H72.9954C73.0278 89.2242 73.8617 89.9334 75.4968 89.9334C75.9949 89.9334 76.4605 89.8576 76.8937 89.706C77.3268 89.5436 77.695 89.3216 77.9982 89.0401L78.8429 90.4532C78.3989 90.8539 77.8629 91.1571 77.2348 91.3628C76.6176 91.5577 75.9678 91.6552 75.2856 91.6552C74.4193 91.6552 73.6613 91.4982 73.0116 91.1842C72.3727 90.8701 71.88 90.4261 71.5335 89.8522C71.187 89.2675 71.0137 88.5961 71.0137 87.8381C71.0137 86.8743 71.2249 86.008 71.6472 85.2392C72.0803 84.4595 72.6759 83.8531 73.4339 83.42C74.2028 82.9868 75.0636 82.7702 76.0166 82.7702C77.2294 82.7702 78.1986 83.1113 78.9241 83.7935C79.6496 84.4649 80.0124 85.3908 80.0124 86.5711ZM75.9191 84.3945C75.2369 84.3945 74.6522 84.5786 74.1649 84.9468C73.6884 85.315 73.3581 85.8185 73.174 86.4574H78.1444C78.1552 85.8077 77.9549 85.3042 77.5434 84.9468C77.1428 84.5786 76.6013 84.3945 75.9191 84.3945ZM87.4377 82.7702C88.4123 82.7702 89.1812 83.0247 89.7443 83.5337C90.3182 84.0426 90.6052 84.7627 90.6052 85.694C90.6052 85.9539 90.5672 86.3004 90.4914 86.7335L89.5331 91.5415H87.5027L88.4448 86.7823C88.4881 86.5657 88.5098 86.3437 88.5098 86.1163C88.5098 85.0659 87.9305 84.5407 86.7718 84.5407C86.0246 84.5407 85.4074 84.7519 84.9201 85.1742C84.4328 85.5857 84.1025 86.2084 83.9292 87.0422L83.0196 91.5415H80.9892L82.711 82.8677H84.6439L84.449 83.826C85.2287 83.1222 86.2249 82.7702 87.4377 82.7702ZM96.525 91.6552C95.6695 91.6552 94.9169 91.4982 94.2672 91.1842C93.6283 90.8593 93.1356 90.4099 92.7891 89.836C92.4426 89.2621 92.2693 88.5961 92.2693 87.8381C92.2693 86.8743 92.4913 86.008 92.9353 85.2392C93.3793 84.4703 93.9911 83.8693 94.7707 83.4362C95.5612 82.9922 96.46 82.7702 97.4671 82.7702C98.3442 82.7702 99.0968 82.9435 99.7249 83.29C100.364 83.6257 100.856 84.1292 101.203 84.8006L99.465 85.694C99.0643 84.8927 98.3442 84.492 97.3047 84.492C96.7307 84.492 96.2164 84.6328 95.7616 84.9143C95.3176 85.185 94.9657 85.5695 94.7058 86.0676C94.4459 86.5549 94.3159 87.1126 94.3159 87.7406C94.3159 88.4228 94.5163 88.9589 94.9169 89.3487C95.3176 89.7277 95.8861 89.9172 96.6225 89.9172C97.1206 89.9172 97.57 89.8197 97.9706 89.6248C98.3713 89.4191 98.7124 89.1159 98.9939 88.7152L100.488 89.7223C100.088 90.3287 99.5354 90.8052 98.8315 91.1517C98.1276 91.4874 97.3588 91.6552 96.525 91.6552ZM110.579 86.5711C110.579 86.9934 110.536 87.4049 110.449 87.8056H103.562C103.595 89.2242 104.428 89.9334 106.064 89.9334C106.562 89.9334 107.027 89.8576 107.461 89.706C107.894 89.5436 108.262 89.3216 108.565 89.0401L109.41 90.4532C108.966 90.8539 108.43 91.1571 107.802 91.3628C107.184 91.5577 106.535 91.6552 105.852 91.6552C104.986 91.6552 104.228 91.4982 103.578 91.1842C102.94 90.8701 102.447 90.4261 102.1 89.8522C101.754 89.2675 101.581 88.5961 101.581 87.8381C101.581 86.8743 101.792 86.008 102.214 85.2392C102.647 84.4595 103.243 83.8531 104.001 83.42C104.77 82.9868 105.63 82.7702 106.583 82.7702C107.796 82.7702 108.765 83.1113 109.491 83.7935C110.216 84.4649 110.579 85.3908 110.579 86.5711ZM106.486 84.3945C105.804 84.3945 105.219 84.5786 104.732 84.9468C104.255 85.315 103.925 85.8185 103.741 86.4574H108.711C108.722 85.8077 108.522 85.3042 108.11 84.9468C107.71 84.5786 107.168 84.3945 106.486 84.3945Z" fill="#B2851B"/>
<path d="M9.79928 58.518H24.1092L23.0871 63.4065H0.200066L0.955559 59.5401L15.621 47.9411C17.5172 46.4301 18.8208 45.1413 19.5318 44.0748C20.2725 43.0082 20.6428 41.8972 20.6428 40.7417C20.6428 39.4974 20.1836 38.5345 19.2652 37.853C18.3763 37.142 17.0579 36.7865 15.3099 36.7865C13.9175 36.7865 12.5842 37.0827 11.3103 37.6753C10.0363 38.2382 8.91046 39.0529 7.93276 40.1195L4.02197 37.0087C5.32557 35.4384 7.04395 34.1941 9.17711 33.2756C11.3103 32.3276 13.6212 31.8535 16.1099 31.8535C18.243 31.8535 20.0947 32.1942 21.665 32.8757C23.2352 33.5571 24.4351 34.52 25.2647 35.7643C26.0942 36.979 26.509 38.3715 26.509 39.9418C26.509 41.8379 25.9905 43.6303 24.9536 45.3191C23.9166 47.0078 22.0946 48.8744 19.4874 50.9186L9.79928 58.518ZM39.2205 37.142L37.0429 44.3414H39.3982C43.2794 44.3414 46.1977 45.0821 48.1531 46.5634C50.1085 48.0448 51.0862 50.1187 51.0862 52.7851C51.0862 54.9776 50.5084 56.9181 49.353 58.6069C48.1975 60.266 46.568 61.5548 44.4645 62.4732C42.3906 63.3917 40.0056 63.8509 37.3095 63.8509C34.969 63.8509 32.8358 63.525 30.91 62.8732C28.9843 62.2214 27.3992 61.303 26.1549 60.1179L29.0435 55.7182C29.9916 56.6663 31.2211 57.4218 32.7321 57.9847C34.2431 58.5476 35.8874 58.8291 37.665 58.8291C40.0945 58.8291 41.961 58.3551 43.2646 57.407C44.5978 56.4589 45.2644 55.1257 45.2644 53.4073C45.2644 50.6224 42.9387 49.2299 38.2872 49.2299H30.2879L35.2208 32.2979H53.486L52.5083 37.142H39.2205Z" fill="#B3851B"/>
<path d="M62.6226 59.6106L61.6449 64.4788H59.0174L60.0154 59.4273L56.288 50.2207H58.9155L61.7264 57.1868L67.3482 50.2207H70.1183L62.6226 59.6106ZM78.9291 58.2459C78.9291 58.7755 78.8747 59.2915 78.7661 59.794H70.1298C70.1705 61.5728 71.2161 62.4623 73.2666 62.4623C73.8912 62.4623 74.4751 62.3672 75.0183 62.1771C75.5614 61.9734 76.0231 61.695 76.4033 61.342L77.4625 63.1141C76.9058 63.6165 76.2336 63.9967 75.446 64.2547C74.672 64.4991 73.8572 64.6213 73.0018 64.6213C71.9154 64.6213 70.9649 64.4244 70.1501 64.0306C69.349 63.6369 68.7311 63.0801 68.2966 62.3604C67.8621 61.6271 67.6448 60.7852 67.6448 59.8347C67.6448 58.6262 67.9096 57.5398 68.4392 56.5757C68.9823 55.598 69.7292 54.8376 70.6797 54.2944C71.6438 53.7512 72.7234 53.4797 73.9184 53.4797C75.4392 53.4797 76.6545 53.9074 77.5643 54.7629C78.4742 55.6048 78.9291 56.7658 78.9291 58.2459ZM73.7961 55.5165C72.9407 55.5165 72.2074 55.7474 71.5963 56.2091C70.9988 56.6708 70.5847 57.3022 70.3538 58.1034H76.5867C76.6002 57.2886 76.349 56.6572 75.833 56.2091C75.3306 55.7474 74.6516 55.5165 73.7961 55.5165ZM92.9456 53.6019L90.7865 64.4788H88.3626L88.5867 63.3585C87.6361 64.2004 86.4548 64.6213 85.0425 64.6213C84.1463 64.6213 83.3316 64.4312 82.5983 64.051C81.8786 63.6708 81.3083 63.1208 80.8873 62.4012C80.4664 61.6679 80.2559 60.8124 80.2559 59.8347C80.2559 58.6262 80.5207 57.5398 81.0503 56.5757C81.5934 55.598 82.3267 54.8376 83.2501 54.2944C84.187 53.7512 85.2326 53.4797 86.3869 53.4797C88.125 53.4797 89.3607 54.0568 90.094 55.211L90.3995 53.6019H92.9456ZM85.6943 62.4419C86.414 62.4419 87.0522 62.2722 87.609 61.9327C88.1793 61.5796 88.6274 61.0976 88.9533 60.4865C89.2792 59.8619 89.4422 59.1557 89.4422 58.3682C89.4422 57.5127 89.1909 56.8473 88.6885 56.372C88.1861 55.8832 87.48 55.6387 86.5702 55.6387C85.8505 55.6387 85.2055 55.8153 84.6351 56.1683C84.0784 56.5078 83.6371 56.9899 83.3112 57.6145C82.9853 58.2256 82.8223 58.9249 82.8223 59.7125C82.8223 60.568 83.0735 61.2401 83.576 61.729C84.0784 62.2043 84.7845 62.4419 85.6943 62.4419ZM98.4155 55.0073C98.8908 54.4506 99.4679 54.0568 100.147 53.8259C100.839 53.5951 101.661 53.4797 102.611 53.4797L102.143 55.9035C101.912 55.8628 101.702 55.8424 101.512 55.8424C99.434 55.8424 98.1779 56.9356 97.7434 59.1218L96.6638 64.4788H94.1177L96.2768 53.6019H98.7007L98.4155 55.0073ZM106.318 64.6213C105.395 64.6213 104.512 64.5127 103.67 64.2954C102.842 64.0646 102.197 63.7794 101.735 63.44L102.795 61.4846C103.243 61.8105 103.806 62.0685 104.485 62.2586C105.164 62.4487 105.864 62.5437 106.583 62.5437C107.398 62.5437 108.009 62.4351 108.416 62.2178C108.837 61.987 109.048 61.6611 109.048 61.2401C109.048 60.9142 108.871 60.6766 108.518 60.5272C108.179 60.3779 107.636 60.2217 106.889 60.0588C106.115 59.9094 105.477 59.7532 104.974 59.5903C104.485 59.4137 104.057 59.1354 103.691 58.7552C103.338 58.3614 103.161 57.825 103.161 57.146C103.161 56.019 103.63 55.1295 104.567 54.4777C105.517 53.8124 106.773 53.4797 108.335 53.4797C109.082 53.4797 109.808 53.5679 110.514 53.7445C111.22 53.9074 111.798 54.1315 112.246 54.4166L111.309 56.372C110.861 56.0869 110.351 55.8764 109.781 55.7406C109.224 55.6048 108.661 55.5369 108.09 55.5369C107.289 55.5369 106.678 55.6591 106.257 55.9035C105.85 56.148 105.646 56.4671 105.646 56.8609C105.646 57.2139 105.823 57.4719 106.176 57.6349C106.542 57.7842 107.106 57.9404 107.866 58.1034C108.627 58.2527 109.252 58.4157 109.74 58.5922C110.229 58.7552 110.65 59.0267 111.003 59.407C111.356 59.7872 111.533 60.3032 111.533 60.955C111.533 62.1228 111.058 63.0258 110.107 63.664C109.156 64.3022 107.894 64.6213 106.318 64.6213Z" fill="#B2851B"/>
<path d="M56.1877 47.0983C54.724 48.1883 53.6066 49.2005 52.8477 50.0337C53.2892 49.145 54.3457 48.0935 56.1877 47.0983C61.8803 42.859 72.811 37.4422 88.2668 36.7941C112.554 35.7756 126.722 39.8494 139.878 29.665C136.842 36.4546 123.484 49.0153 94.3386 44.9416C72.8235 41.9343 61.3821 44.292 56.1877 47.0983Z" fill="#B2851B"/>
<path d="M57.7829 45.5097C56.6087 46.6695 55.7354 47.7153 55.1607 48.5556C55.4435 47.7066 56.2572 46.6335 57.7829 45.5097C62.3494 40.9994 71.4655 34.7665 85.2499 32.204C106.911 28.1773 120.142 29.9899 130.646 19.221C128.789 25.6639 118.406 38.5773 91.7373 38.688C72.0499 38.7697 62.0854 42.3409 57.7829 45.5097Z" fill="#F9D88C"/>
</svg>
