<svg width="50" height="50" viewBox="0 0 50 50" fill="none" xmlns="http://www.w3.org/2000/svg">
<g opacity="0.1">
<circle cx="47.9805" cy="2" r="2" transform="rotate(90 47.9805 2)" fill="#0A0442"/>
<circle cx="47.9805" cy="13.4949" r="2" transform="rotate(90 47.9805 13.4949)" fill="#0A0442"/>
<circle cx="47.9805" cy="24.9902" r="2" transform="rotate(90 47.9805 24.9902)" fill="#0A0442"/>
<circle cx="47.9805" cy="36.4851" r="2" transform="rotate(90 47.9805 36.4851)" fill="#0A0442"/>
<circle cx="47.9805" cy="47.9797" r="2" transform="rotate(90 47.9805 47.9797)" fill="#0A0442"/>
<circle cx="36.4844" cy="2" r="2" transform="rotate(90 36.4844 2)" fill="#0A0442"/>
<circle cx="36.4844" cy="13.4949" r="2" transform="rotate(90 36.4844 13.4949)" fill="#0A0442"/>
<circle cx="36.4844" cy="24.9902" r="2" transform="rotate(90 36.4844 24.9902)" fill="#0A0442"/>
<circle cx="36.4844" cy="36.4851" r="2" transform="rotate(90 36.4844 36.4851)" fill="#0A0442"/>
<circle cx="36.4844" cy="47.9797" r="2" transform="rotate(90 36.4844 47.9797)" fill="#0A0442"/>
<circle cx="24.9902" cy="2" r="2" transform="rotate(90 24.9902 2)" fill="#0A0442"/>
<circle cx="24.9902" cy="13.4949" r="2" transform="rotate(90 24.9902 13.4949)" fill="#0A0442"/>
<circle cx="24.9902" cy="24.9902" r="2" transform="rotate(90 24.9902 24.9902)" fill="#0A0442"/>
<circle cx="24.9902" cy="36.4851" r="2" transform="rotate(90 24.9902 36.4851)" fill="#0A0442"/>
<circle cx="24.9902" cy="47.9797" r="2" transform="rotate(90 24.9902 47.9797)" fill="#0A0442"/>
<circle cx="13.4961" cy="2" r="2" transform="rotate(90 13.4961 2)" fill="#0A0442"/>
<circle cx="13.4961" cy="13.4949" r="2" transform="rotate(90 13.4961 13.4949)" fill="#0A0442"/>
<circle cx="13.4961" cy="24.9902" r="2" transform="rotate(90 13.4961 24.9902)" fill="#0A0442"/>
<circle cx="13.4961" cy="36.4851" r="2" transform="rotate(90 13.4961 36.4851)" fill="#0A0442"/>
<circle cx="13.4961" cy="47.9797" r="2" transform="rotate(90 13.4961 47.9797)" fill="#0A0442"/>
<circle cx="2" cy="2" r="2" transform="rotate(90 2 2)" fill="#0A0442"/>
<circle cx="2" cy="13.4949" r="2" transform="rotate(90 2 13.4949)" fill="#0A0442"/>
<circle cx="2" cy="24.9902" r="2" transform="rotate(90 2 24.9902)" fill="#0A0442"/>
<circle cx="2" cy="36.4851" r="2" transform="rotate(90 2 36.4851)" fill="#0A0442"/>
<circle cx="2" cy="47.9797" r="2" transform="rotate(90 2 47.9797)" fill="#0A0442"/>
</g>
</svg>
